# xmcd
#
# Track frame offsets:
#	225
#	14439
#	28244
#	41262
#	54669
#	68331
#	81956
#	96312
#	110252
#	123804
#	136847
#	151113
#	165580
#	178366
#	192116
#	204283
#	218490
#	233330
#	247384
#	261382
#	275457
#	288121
#	301253
#
# Disc length: 4175 seconds
#
# Revision: 0
# Processed by: cddbd v1.5.1PL0 Copyright (c) Steve Scherf et al.
# Submitted via: dBpowerAMP V4.0
#
DISCID=36104c17
DTITLE=Charley Patton - Pony Blues
DYEAR=1900
DGENRE=
TTITLE0=Mississippi Boweavil Blues
TTITLE1=Screamin' and Hollerin' The Blues
TTITLE2=Down the Dirt Road Blues
TTITLE3=Pony Blues
TTITLE4=Banty Rooster Blues
TTITLE5=Pea Vine Blues
TTITLE6=A Spoonful Blues
TTITLE7=Prayer of Death, Pt. 1
TTITLE8=Elder Greene Blues
TTITLE9=Mean Black Cat Blues
TTITLE10=Green River Blues
TTITLE11=Hammer Blues
TTITLE12=Heart Like Railroad Steel
TTITLE13=High Water Everywhere, Pt. 1 	
TTITLE14=Rattlesnakes Blues
TTITLE15=Mean Black Moan
TTITLE16=Dry Well Blues
TTITLE17=Bird Nest Bound
TTITLE18=Jersey Bull Blues
TTITLE19=High Sheriff Blues
TTITLE20=Stone Pony Blues
TTITLE21=34 Blues
TTITLE22=Hang It on the Wall
EXTD=
EXTT0=
EXTT1=
EXTT2=
EXTT3=
EXTT4=
EXTT5=
EXTT6=
EXTT7=
EXTT8=
EXTT9=
EXTT10=
EXTT11=
EXTT12=
EXTT13=
EXTT14=
EXTT15=
EXTT16=
EXTT17=
EXTT18=
EXTT19=
EXTT20=
EXTT21=
EXTT22=
PLAYORDER=
